<?xml version="1.0" standalone="no"?>
<!DOCTYPE svg PUBLIC "-//W3C//DTD SVG 20010904//EN" "http://www.w3.org/TR/2001/REC-SVG-20010904/DTD/svg10.dtd">
<!-- Created using Krita: http://krita.org -->
<svg xmlns="http://www.w3.org/2000/svg" 
    xmlns:xlink="http://www.w3.org/1999/xlink"
    xmlns:krita="http://krita.org/namespaces/svg/krita"
    xmlns:sodipodi="http://sodipodi.sourceforge.net/DTD/sodipodi-0.dtd"
    width="737.28pt"
    height="737.28pt"
    viewBox="0 0 737.28 737.28">
<defs/>
<path id="shape0" transform="matrix(0.999999967256675 0 0 0.999999967256675 368.279988931011 368.639995259613)" fill="#182329" stroke="#000000" stroke-opacity="0" stroke-width="0" stroke-linecap="square" stroke-linejoin="bevel" d="M0.359999 230.4L92.52 92.16L230.4 0L0.359999 0C-0.12 0.480002 -0.12 77.28 0.359999 230.4Z"/><path id="shape0" transform="translate(46.08, 46.8000016595167)" fill="#6daa2c" fill-rule="evenodd" stroke="#000000" stroke-opacity="0" stroke-width="0" stroke-linecap="square" stroke-linejoin="bevel" d="M322.56 642.24L322.56 0L230.4 11.52L138.24 57.6L66.96 121.68L18.72 203.04L0 297.36L0 375.12L28.8 460.08L74.16 530.64L123.12 577.44L195.12 618.48L276.48 644.4C274.56 642.48 289.92 641.76 322.56 642.24Z"/><path id="shape1" transform="translate(366.840006472115, 45.3600016084546)" fill="#2c3033" fill-rule="evenodd" stroke="#000000" stroke-opacity="0" stroke-width="0" stroke-linecap="square" stroke-linejoin="bevel" d="M1.79999 323.28L324.36 323.28L312.12 231.12L268.2 138.96L186.12 58.32L93.96 13.68L1.79999 0C-0.599998 0 -0.599998 107.76 1.79999 323.28Z"/><circle id="shape2" transform="translate(184.32, 184.32)" r="46.08" cx="46.08" cy="46.08" fill="#ffb30b" fill-rule="evenodd" stroke="#000000" stroke-width="17.28" stroke-linecap="square" stroke-linejoin="bevel"/><path id="shape3" transform="matrix(3.40005801291454e-16 1.00000000000001 -1.00000000000001 3.40005801291454e-16 691.204714210413 46.0752857895868)" sodipodi:type="arc" sodipodi:rx="322.56" sodipodi:ry="322.56" sodipodi:cx="322.569428420821" sodipodi:cy="322.56" sodipodi:start="6.28318530717959" sodipodi:end="4.71238898038469" sodipodi:open="true" d="M322.569 0C192.106 -1.818e-13 74.489 78.5892 24.5628 199.122C-25.3633 319.654 2.23355 458.393 94.4851 550.644C186.737 642.896 325.475 670.493 446.008 620.567C566.54 570.64 645.129 453.023 645.129 322.56" fill="none" stroke="#000000" stroke-width="34.56" stroke-linecap="round" stroke-linejoin="bevel"/><path id="shape4" transform="translate(368.64, 45.3599998600641)" fill="none" stroke="#000000" stroke-width="34.56" stroke-linecap="butt" stroke-linejoin="miter" stroke-miterlimit="2.16" d="M0 648.72L0 0"/><path id="shape5" transform="matrix(-1 0 0 1 691.2 368.64)" fill="none" stroke="#000000" stroke-width="34.56" stroke-linecap="butt" stroke-linejoin="miter" stroke-miterlimit="2.16" d="M0 0L322.56 0"/><path id="shape01" transform="matrix(0.999999977220588 0 0 0.999999977220588 368.459992731001 367.929416118401)" sodipodi:type="arc" sodipodi:rx="322.56" sodipodi:ry="322.56" sodipodi:cx="322.56" sodipodi:cy="322.56" sodipodi:start="3.14159266064896" sodipodi:end="4.71238898038469" sodipodi:open="true" d="M322.56 0C144.415 -1.09079e-14 1.25756e-06 144.415 0 322.56" fill="none" stroke="#000000" stroke-width="34.56" stroke-linecap="round" stroke-linejoin="bevel"/><circle id="shape6" transform="translate(207.36, 207.36)" r="23.04" cx="23.04" cy="23.04" fill="#000000" fill-rule="evenodd"/>
</svg>
